<mxfile host="app.diagrams.net">
  <diagram name="CineStream Data Warehouse Architecture" id="cinedw-arch-001">
    <mxGraphModel>
      <root>
        <mxCell id="0" />
        <mxCell id="1" parent="0" />

        <!-- Source Systems -->
        <mxCell id="2" value="Operational Databases&#xa;(Rental, Payment, Inventory)" style="shape=rectangle;fill=#FFD966;strokeColor=#000000;rounded=1;" vertex="1" parent="1">
          <mxGeometry x="80" y="40" width="220" height="60" as="geometry" />
        </mxCell>

        <!-- ETL Pipeline -->
        <mxCell id="3" value="ETL Pipeline&#xa;(Data Engineer)" style="shape=rectangle;fill=#93C47D;strokeColor=#000000;rounded=1;" vertex="1" parent="1">
          <mxGeometry x="100" y="140" width="180" height="60" as="geometry" />
        </mxCell>

        <!-- Arrow from Source to ETL -->
        <mxCell id="4" edge="1" parent="1" source="2" target="3">
          <mxGeometry relative="1" as="geometry" />
        </mxCell>

        <!-- Data Warehouse -->
        <mxCell id="5" value="Data Warehouse&#xa;(dvddw Schema)" style="shape=rectangle;fill=#6FA8DC;strokeColor=#000000;rounded=1;" vertex="1" parent="1">
          <mxGeometry x="80" y="240" width="220" height="80" as="geometry" />
        </mxCell>

        <!-- Arrow from ETL to DW -->
        <mxCell id="6" edge="1" parent="1" source="3" target="5">
          <mxGeometry relative="1" as="geometry" />
        </mxCell>

        <!-- Data Mart 1 -->
        <mxCell id="7" value="Sales &amp; Revenue Mart&#xa;(Finance)" style="shape=rectangle;fill=#EAD1DC;strokeColor=#000000;rounded=1;" vertex="1" parent="1">
          <mxGeometry x="20" y="380" width="180" height="60" as="geometry" />
        </mxCell>

        <!-- Data Mart 2 -->
        <mxCell id="8" value="Customer &amp; Engagement Mart&#xa;(Marketing)" style="shape=rectangle;fill=#EAD1DC;strokeColor=#000000;rounded=1;" vertex="1" parent="1">
          <mxGeometry x="200" y="380" width="200" height="60" as="geometry" />
        </mxCell>

        <!-- Arrow from DW to Data Marts -->
        <mxCell id="9" edge="1" parent="1" source="5" target="7">
          <mxGeometry relative="1" as="geometry" />
        </mxCell>
        <mxCell id="10" edge="1" parent="1" source="5" target="8">
          <mxGeometry relative="1" as="geometry" />
        </mxCell>

        <!-- End Users 1 -->
        <mxCell id="11" value="Data Analysts&#xa;(BI &amp; Reporting)" style="shape=rectangle;fill=#F6B26B;strokeColor=#000000;rounded=1;" vertex="1" parent="1">
          <mxGeometry x="20" y="500" width="180" height="60" as="geometry" />
        </mxCell>

        <!-- End Users 2 -->
        <mxCell id="12" value="Business Managers&#xa;(Reports &amp; Insights)" style="shape=rectangle;fill=#F6B26B;strokeColor=#000000;rounded=1;" vertex="1" parent="1">
          <mxGeometry x="200" y="500" width="200" height="60" as="geometry" />
        </mxCell>

        <!-- Arrows from Data Marts to End Users -->
        <mxCell id="13" edge="1" parent="1" source="7" target="11">
          <mxGeometry relative="1" as="geometry" />
        </mxCell>
        <mxCell id="14" edge="1" parent="1" source="8" target="12">
          <mxGeometry relative="1" as="geometry" />
        </mxCell>

      </root>
    </mxGraphModel>
  </diagram>
</mxfile>
